<svg width="384" height="384" viewBox="0 0 384 384" fill="none" xmlns="http://www.w3.org/2000/svg">
<rect width="384" height="384" fill="white"/>
<rect width="352" height="352" transform="translate(16 16)" fill="white"/>
<path d="M262.4 326.867V117.592C282.933 109.8 321.067 92.2 368 57V326.867H262.4Z" fill="#A8A8A9"/>
<g clip-path="url(#clip0_31_1437)">
<path d="M326.373 326.866L326.373 221.819C333.476 217.84 338.28 210.245 338.28 201.524C338.28 191.805 332.318 183.479 323.852 180.005L323.852 201.523L306.202 201.523V180.005C297.736 183.479 291.774 191.805 291.774 201.524C291.774 210.36 296.703 218.044 303.961 221.979L303.961 339.152C296.703 343.087 291.774 326.04 291.774 334.876C291.774 344.594 297.736 352.921 306.202 356.394L306.202 334.876L323.852 334.876L323.852 356.394C332.318 352.921 338.28 344.594 338.28 334.876C338.28 326.155 333.476 330.846 326.373 326.866Z" fill="white"/>
</g>
<path d="M244.8 133.58C215.467 150.867 174.4 150.867 139.2 133.58V326.866H244.8V133.58Z" fill="#F5BD4F"/>
<g clip-path="url(#clip1_31_1437)">
<path fill-rule="evenodd" clip-rule="evenodd" d="M197.353 183.288L189.483 183.288C189.198 183.288 188.919 183.376 188.686 183.541C188.453 183.706 188.277 183.94 188.183 184.209L181.031 204.779C180.979 204.935 180.954 205.098 180.957 205.262L181.223 216.746C181.227 216.934 181.27 217.12 181.349 217.292C181.429 217.463 181.543 217.616 181.684 217.741L183.649 219.488C182.252 221.472 181.496 223.826 181.491 226.297L181.223 236.937C181.196 237.986 181.132 238.902 180.903 239.963L180.493 241.871C179.892 241.541 179.29 241.218 178.69 240.885C176.932 239.92 174.863 240.196 173.415 241.591L173.349 241.657C171.957 243.049 171.624 245.068 172.507 246.833L173.605 249.026C173.862 249.539 173.864 250.061 173.611 250.576C165.129 267.804 164.115 280.45 165.173 299.149C165.813 310.452 165.689 320.73 162.995 334.148C162.598 336.134 162.997 338.158 164.121 339.843C165.246 341.529 166.959 342.675 168.945 343.072C171.525 343.589 174.066 342.723 175.801 340.988C176.859 339.934 177.579 338.589 177.87 337.124C180.456 324.239 181.173 312.994 180.341 298.313C179.176 277.716 181.136 268.221 189.882 252.139C190.773 250.502 190.523 248.533 189.411 247.158L193.416 239.214L197.424 247.158C196.311 248.531 196.063 250.502 196.953 252.139C205.699 268.222 207.66 277.716 206.495 298.313C205.663 312.994 206.379 324.238 208.964 337.122C209.786 341.225 213.788 343.892 217.889 343.073C219.375 342.776 220.708 342.06 221.756 341.012C222.109 340.659 222.43 340.267 222.714 339.843C223.836 338.156 224.236 336.135 223.84 334.147C221.148 320.732 221.021 310.455 221.66 299.151C222.718 280.453 221.705 267.807 213.224 250.576C212.97 250.061 212.974 249.539 213.231 249.026L214.327 246.833C215.223 245.042 214.869 242.983 213.421 241.592C211.972 240.196 209.904 239.92 208.145 240.885C207.543 241.215 206.942 241.543 206.341 241.873L205.931 239.965C205.703 238.905 205.638 237.988 205.612 236.939L205.346 226.297C205.34 223.826 204.581 221.469 203.187 219.488L205.152 217.741C205.173 217.724 205.19 217.706 205.21 217.686C205.46 217.437 205.604 217.1 205.612 216.747L205.879 205.261C205.881 205.097 205.856 204.933 205.803 204.777L198.651 184.212C198.557 183.942 198.382 183.708 198.149 183.542C197.917 183.377 197.639 183.288 197.353 183.288ZM193.417 196.638L193.948 197.195L194 210L193.415 211L192.89 210L192.889 197.195L193.417 196.638Z" fill="white"/>
</g>
<path d="M16 326.867V57C54.1333 86.3333 83.4667 106.867 121.6 119.471V326.867H16Z" fill="#0AAAB6"/>
<path d="M36.5334 186.067C7.20004 194.867 57.0667 238.867 48.2667 259.4" stroke="white" stroke-width="5.86667"/>
<path d="M33.6001 186.067C33.6001 179.587 38.8533 174.333 45.3334 174.333H98.1334C104.614 174.333 109.867 179.587 109.867 186.067C109.867 192.547 104.614 197.8 98.1334 197.8H45.3334C38.8533 197.8 33.6001 192.547 33.6001 186.067Z" fill="white"/>
<rect x="39.4667" y="256.467" width="23.4667" height="70.4" fill="white"/>
<defs>
<clipPath id="clip0_31_1437">
<rect width="82.1333" height="158.4" fill="white" transform="translate(274.133 168.467)"/>
</clipPath>
<clipPath id="clip1_31_1437">
<rect width="70.4" height="146.667" fill="white" transform="translate(156.8 180.2)"/>
</clipPath>
</defs>
</svg>
