<svg width="278" height="100" viewBox="0 0 278 100" fill="none" xmlns="http://www.w3.org/2000/svg">
<path d="M131.424 37.546C130.676 37.5687 129.962 37.6027 129.282 37.648C128.625 37.6707 127.922 37.7047 127.174 37.75C127.106 39.0193 127.049 40.232 127.004 41.388C126.981 42.544 126.97 43.8473 126.97 45.298C127.582 45.3433 128.194 45.3773 128.806 45.4C129.441 45.4 130.075 45.4 130.71 45.4C131.798 45.4 132.841 45.3773 133.838 45.332C134.835 45.264 135.844 45.1733 136.864 45.06L136.048 47.984C135.187 47.8933 134.314 47.8253 133.43 47.78C132.546 47.712 131.628 47.678 130.676 47.678C130.019 47.678 129.384 47.6893 128.772 47.712C128.183 47.7347 127.582 47.7687 126.97 47.814V48.596C126.97 50.364 126.993 52.1433 127.038 53.934C127.106 55.702 127.185 57.3907 127.276 59L121.904 59.17C121.972 57.5607 122.029 55.838 122.074 54.002C122.142 52.166 122.176 50.364 122.176 48.596V45.264C122.176 43.496 122.142 41.7507 122.074 40.028C122.029 38.3053 121.972 36.6393 121.904 35.03C122.38 35.0527 123.037 35.0867 123.876 35.132C124.737 35.1547 125.633 35.1773 126.562 35.2C127.514 35.2227 128.421 35.2453 129.282 35.268C130.166 35.268 130.869 35.268 131.39 35.268C131.934 35.268 132.523 35.2567 133.158 35.234C133.793 35.2113 134.439 35.1887 135.096 35.166C135.776 35.1207 136.422 35.0753 137.034 35.03C137.669 34.9847 138.235 34.9393 138.734 34.894L137.85 37.818C136.762 37.7273 135.708 37.6593 134.688 37.614C133.668 37.546 132.58 37.5233 131.424 37.546ZM145.518 49.99C145.518 51.4633 145.54 53.0047 145.586 54.614C145.654 56.2233 145.722 57.6853 145.79 59L140.962 59.17C140.984 58.5127 141.007 57.81 141.03 57.062C141.075 56.2913 141.109 55.5093 141.132 54.716C141.154 53.9 141.166 53.0953 141.166 52.302C141.188 51.486 141.2 50.7153 141.2 49.99V47.814C141.2 46.3633 141.166 44.822 141.098 43.19C141.052 41.558 141.007 40.0847 140.962 38.77L145.79 38.6C145.744 39.2573 145.71 39.9713 145.688 40.742C145.665 41.5127 145.631 42.306 145.586 43.122C145.563 43.9153 145.54 44.72 145.518 45.536C145.518 46.3293 145.518 47.0887 145.518 47.814V49.99ZM156.226 51.316L155.716 52.03C153.994 54.478 152.441 56.858 151.058 59.17L147.658 59C148.089 58.4333 148.542 57.8213 149.018 57.164C149.517 56.5067 150.016 55.838 150.514 55.158L151.942 53.118C152.441 52.438 152.917 51.792 153.37 51.18L154.798 49.106L153.472 46.998C153.11 46.4313 152.702 45.808 152.248 45.128C151.795 44.4253 151.33 43.7113 150.854 42.986C150.378 42.238 149.891 41.5013 149.392 40.776C148.916 40.0507 148.452 39.382 147.998 38.77L153.54 38.6C154.152 39.756 154.787 40.878 155.444 41.966C156.102 43.054 156.782 44.1647 157.484 45.298C158.21 44.21 158.935 43.0767 159.66 41.898C160.408 40.6967 161.077 39.5973 161.666 38.6L165.1 38.77C164.692 39.2913 164.239 39.892 163.74 40.572C163.264 41.2293 162.766 41.9207 162.244 42.646C161.746 43.3487 161.247 44.0513 160.748 44.754C160.272 45.4567 159.83 46.1027 159.422 46.692L158.878 47.474L161.224 51.146C162.086 52.4833 162.947 53.8093 163.808 55.124C164.67 56.416 165.554 57.708 166.46 59L160.986 59.17C160.374 58.0593 159.74 56.96 159.082 55.872C158.425 54.784 157.734 53.6733 157.008 52.54L156.226 51.316ZM168.762 59C168.853 57.3907 168.921 55.6453 168.966 53.764C169.012 51.86 169.034 50.024 169.034 48.256V45.944C169.034 44.176 169 42.3513 168.932 40.47C168.887 38.566 168.819 36.8093 168.728 35.2C169.363 35.1547 170.043 35.1093 170.768 35.064C171.494 35.0187 172.196 34.9847 172.876 34.962C173.556 34.9393 174.191 34.928 174.78 34.928C175.37 34.9053 175.857 34.894 176.242 34.894C177.217 34.894 178.26 34.9733 179.37 35.132C180.504 35.2907 181.535 35.5853 182.464 36.016C183.394 36.424 184.164 37.002 184.776 37.75C185.411 38.4753 185.728 39.4273 185.728 40.606C185.728 41.898 185.4 42.952 184.742 43.768C184.085 44.5613 183.314 45.1847 182.43 45.638C183.042 45.8193 183.632 46.08 184.198 46.42C184.765 46.76 185.264 47.168 185.694 47.644C186.148 48.0973 186.51 48.63 186.782 49.242C187.054 49.854 187.19 50.5227 187.19 51.248C187.19 52.8347 186.862 54.138 186.204 55.158C185.547 56.178 184.674 56.9827 183.586 57.572C182.498 58.1613 181.252 58.5693 179.846 58.796C178.464 59.0227 177.036 59.136 175.562 59.136C175.2 59.136 174.735 59.1247 174.168 59.102C173.602 59.102 172.99 59.0907 172.332 59.068C171.698 59.068 171.063 59.0567 170.428 59.034C169.794 59.034 169.238 59.0227 168.762 59ZM173.828 48.256V50.534C173.828 51.2367 173.84 51.928 173.862 52.608C173.885 53.2653 173.908 53.9227 173.93 54.58C173.953 55.2373 173.987 55.94 174.032 56.688C174.35 56.7107 174.712 56.7333 175.12 56.756C175.551 56.756 175.948 56.756 176.31 56.756C177.013 56.756 177.716 56.688 178.418 56.552C179.121 56.3933 179.744 56.1213 180.288 55.736C180.855 55.328 181.308 54.7953 181.648 54.138C182.011 53.458 182.192 52.5967 182.192 51.554C182.192 50.8513 182.056 50.2393 181.784 49.718C181.535 49.174 181.195 48.732 180.764 48.392C180.334 48.0293 179.835 47.7573 179.268 47.576C178.702 47.3947 178.124 47.304 177.534 47.304C177.217 47.304 176.934 47.3153 176.684 47.338C176.458 47.338 176.118 47.372 175.664 47.44L176.548 45.128C176.662 45.128 176.764 45.1167 176.854 45.094C176.99 45.094 177.172 45.0713 177.398 45.026C178.328 44.822 179.098 44.3913 179.71 43.734C180.345 43.0767 180.662 42.0907 180.662 40.776C180.662 40.0507 180.515 39.4613 180.22 39.008C179.948 38.5547 179.586 38.2033 179.132 37.954C178.679 37.682 178.169 37.5007 177.602 37.41C177.036 37.2967 176.469 37.24 175.902 37.24H174.95C174.678 37.24 174.372 37.2513 174.032 37.274C173.964 38.702 173.908 40.1187 173.862 41.524C173.84 42.9067 173.828 44.38 173.828 45.944V48.256ZM193.978 52.03C193.456 53.322 193.014 54.5347 192.652 55.668C192.289 56.7787 191.904 57.946 191.496 59.17L188.368 59C188.64 58.4107 188.9 57.8667 189.15 57.368C189.399 56.8467 189.648 56.3027 189.898 55.736C190.147 55.1693 190.408 54.5573 190.68 53.9C190.974 53.22 191.292 52.4153 191.632 51.486L193.468 46.59C194.057 45.026 194.578 43.632 195.032 42.408C195.508 41.1613 195.95 39.9487 196.358 38.77L200.54 38.6C200.993 39.8467 201.446 41.1047 201.9 42.374C202.376 43.6433 202.908 45.0373 203.498 46.556L205.368 51.35C206.002 52.982 206.58 54.3873 207.102 55.566C207.646 56.7447 208.178 57.8893 208.7 59L203.736 59.17C203.305 57.946 202.886 56.79 202.478 55.702C202.07 54.5913 201.582 53.356 201.016 51.996C200.494 51.9507 199.916 51.928 199.282 51.928C198.67 51.9053 198.08 51.894 197.514 51.894C196.947 51.894 196.403 51.9053 195.882 51.928C195.36 51.9507 194.726 51.9847 193.978 52.03ZM194.896 49.582C195.326 49.6273 195.768 49.6613 196.222 49.684C196.698 49.684 197.128 49.684 197.514 49.684C198.035 49.684 198.466 49.684 198.806 49.684C199.168 49.6613 199.61 49.6273 200.132 49.582L199.282 47.338C199.1 46.8393 198.93 46.4087 198.772 46.046C198.636 45.6833 198.5 45.3433 198.364 45.026C198.25 44.7087 198.126 44.4027 197.99 44.108C197.854 43.7907 197.706 43.4393 197.548 43.054C197.389 43.4167 197.242 43.7567 197.106 44.074C196.992 44.3687 196.868 44.686 196.732 45.026C196.596 45.3433 196.448 45.6947 196.29 46.08C196.154 46.4427 195.984 46.862 195.78 47.338L194.896 49.582ZM215.211 49.99C215.211 51.4633 215.234 53.0047 215.279 54.614C215.347 56.2233 215.415 57.6853 215.483 59L210.655 59.17C210.678 58.5127 210.7 57.81 210.723 57.062C210.768 56.2913 210.802 55.5093 210.825 54.716C210.848 53.9 210.859 53.0953 210.859 52.302C210.882 51.486 210.893 50.7153 210.893 49.99V47.814C210.893 46.3633 210.859 44.822 210.791 43.19C210.746 41.558 210.7 40.0847 210.655 38.77L215.483 38.6C215.438 39.2573 215.404 39.9713 215.381 40.742C215.358 41.5127 215.324 42.306 215.279 43.122C215.256 43.9153 215.234 44.72 215.211 45.536C215.211 46.3293 215.211 47.0887 215.211 47.814V49.99ZM228.504 49.99C228.504 51.4633 228.515 53.0047 228.538 54.614C228.583 56.2233 228.628 57.6853 228.674 59L223.88 59.17C223.925 58.5127 223.959 57.81 223.982 57.062C224.027 56.2913 224.061 55.5093 224.084 54.716C224.129 53.9 224.152 53.0953 224.152 52.302C224.174 51.486 224.186 50.7153 224.186 49.99V48.018V46.148C224.186 45.5587 224.174 44.992 224.152 44.448C224.152 43.904 224.14 43.36 224.118 42.816C224.095 42.272 224.061 41.6827 224.016 41.048C223.54 41.048 222.996 41.0593 222.384 41.082L220.582 41.15C219.992 41.1727 219.414 41.2067 218.848 41.252C218.304 41.2747 217.828 41.2973 217.42 41.32L218.066 38.566C218.542 38.6113 219.142 38.6453 219.868 38.668C220.616 38.6907 221.386 38.7247 222.18 38.77C222.973 38.7927 223.755 38.8153 224.526 38.838C225.296 38.838 225.965 38.838 226.532 38.838C227.121 38.838 227.801 38.8267 228.572 38.804C229.342 38.7813 230.124 38.7587 230.918 38.736C231.734 38.7133 232.527 38.6907 233.298 38.668C234.068 38.6227 234.76 38.5887 235.372 38.566L234.454 41.286C233.479 41.218 232.504 41.1727 231.53 41.15C230.578 41.1047 229.592 41.0707 228.572 41.048C228.526 42.1587 228.504 43.292 228.504 44.448V48.018V49.99ZM240.003 44.278C240.003 44.5953 239.992 44.89 239.969 45.162C239.969 45.434 239.958 45.706 239.935 45.978C239.935 46.2273 239.935 46.488 239.935 46.76V47.678V49.99C239.935 51.4633 239.947 53.0047 239.969 54.614C240.015 56.2233 240.083 57.6853 240.173 59L237.249 59.17C237.272 58.5127 237.295 57.81 237.317 57.062C237.363 56.2913 237.397 55.5093 237.419 54.716C237.442 53.9 237.453 53.0953 237.453 52.302C237.476 51.486 237.487 50.7153 237.487 49.99V47.678C237.487 46.25 237.465 44.7427 237.419 43.156C237.374 41.5467 237.317 40.0847 237.249 38.77L241.499 38.6C242.247 39.688 243.063 40.8213 243.947 42C244.831 43.1787 245.704 44.3687 246.565 45.57L250.441 50.704L252.515 53.39C252.538 52.8687 252.549 52.3133 252.549 51.724C252.572 51.1347 252.583 50.5567 252.583 49.99V47.678C252.583 46.25 252.549 44.7427 252.481 43.156C252.436 41.5467 252.368 40.0847 252.277 38.77L255.235 38.6C255.19 39.2573 255.156 39.9713 255.133 40.742C255.111 41.49 255.088 42.2607 255.065 43.054C255.043 43.8473 255.02 44.6407 254.997 45.434C254.997 46.2273 254.997 46.9753 254.997 47.678V49.99C254.997 51.4633 255.02 53.0047 255.065 54.614C255.111 56.2233 255.167 57.6853 255.235 59L251.053 59.17C250.283 58.082 249.444 56.926 248.537 55.702C247.653 54.478 246.781 53.288 245.919 52.132L242.077 46.998C241.873 46.726 241.692 46.488 241.533 46.284C241.375 46.0573 241.216 45.842 241.057 45.638C240.921 45.434 240.763 45.23 240.581 45.026C240.423 44.7993 240.23 44.55 240.003 44.278ZM262.741 52.03C262.22 53.322 261.778 54.5347 261.415 55.668C261.053 56.7787 260.667 57.946 260.259 59.17L257.131 59C257.403 58.4107 257.664 57.8667 257.913 57.368C258.163 56.8467 258.412 56.3027 258.661 55.736C258.911 55.1693 259.171 54.5573 259.443 53.9C259.738 53.22 260.055 52.4153 260.395 51.486L262.231 46.59C262.821 45.026 263.342 43.632 263.795 42.408C264.271 41.1613 264.713 39.9487 265.121 38.77L269.303 38.6C269.757 39.8467 270.21 41.1047 270.663 42.374C271.139 43.6433 271.672 45.0373 272.261 46.556L274.131 51.35C274.766 52.982 275.344 54.3873 275.865 55.566C276.409 56.7447 276.942 57.8893 277.463 59L272.499 59.17C272.069 57.946 271.649 56.79 271.241 55.702C270.833 54.5913 270.346 53.356 269.779 51.996C269.258 51.9507 268.68 51.928 268.045 51.928C267.433 51.9053 266.844 51.894 266.277 51.894C265.711 51.894 265.167 51.9053 264.645 51.928C264.124 51.9507 263.489 51.9847 262.741 52.03ZM263.659 49.582C264.09 49.6273 264.532 49.6613 264.985 49.684C265.461 49.684 265.892 49.684 266.277 49.684C266.799 49.684 267.229 49.684 267.569 49.684C267.932 49.6613 268.374 49.6273 268.895 49.582L268.045 47.338C267.864 46.8393 267.694 46.4087 267.535 46.046C267.399 45.6833 267.263 45.3433 267.127 45.026C267.014 44.7087 266.889 44.4027 266.753 44.108C266.617 43.7907 266.47 43.4393 266.311 43.054C266.153 43.4167 266.005 43.7567 265.869 44.074C265.756 44.3687 265.631 44.686 265.495 45.026C265.359 45.3433 265.212 45.6947 265.053 46.08C264.917 46.4427 264.747 46.862 264.543 47.338L263.659 49.582Z" fill="#192C54"/>
<g clip-path="url(#clip0_117_216)">
<path d="M63.75 76.3411V35.4671C67.7604 33.9453 75.2083 30.5078 84.375 23.6328V76.3411H63.75Z" fill="#A8A8A9"/>
<g clip-path="url(#clip1_117_216)">
<path d="M76.2447 76.3409L76.2447 55.8239C77.6319 55.0467 78.5702 53.5633 78.5702 51.86C78.5702 49.9618 77.4058 48.3356 75.7522 47.6571L75.7522 51.8599L72.305 51.8599L72.305 47.6571C70.6515 48.3356 69.4871 49.9618 69.4871 51.86C69.4871 53.5858 70.4497 55.0867 71.8673 55.8551L71.8673 78.7405C70.4497 79.509 69.487 76.1795 69.4871 77.9053C69.4871 79.8034 70.6515 81.4297 72.305 82.1082L72.305 77.9053L75.7522 77.9053V82.1082C77.4058 81.4297 78.5702 79.8034 78.5702 77.9053C78.5702 76.2021 77.632 77.1182 76.2447 76.3409Z" fill="white"/>
</g>
<path d="M60.3125 38.5898C54.5833 41.9661 46.5625 41.9661 39.6875 38.5898V76.3411H60.3125V38.5898Z" fill="#F5BD4F"/>
<g clip-path="url(#clip2_117_216)">
<path fill-rule="evenodd" clip-rule="evenodd" d="M51.0455 48.2983L49.5084 48.2983C49.4527 48.2983 49.3983 48.3156 49.3528 48.3479C49.3073 48.3801 49.2729 48.4257 49.2544 48.4783L47.8577 52.4959C47.8474 52.5262 47.8425 52.5581 47.8432 52.5901L47.895 54.8331C47.8958 54.87 47.9043 54.9063 47.9198 54.9398C47.9353 54.9732 47.9576 55.0031 47.9852 55.0276L48.3689 55.3687C48.0962 55.7561 47.9485 56.216 47.9474 56.6986L47.895 58.7767C47.8899 58.9816 47.8773 59.1605 47.8327 59.3677L47.7525 59.7405C47.6351 59.676 47.5176 59.6128 47.4004 59.5478C47.0569 59.3594 46.6529 59.4133 46.3702 59.6856L46.3571 59.6987C46.0853 59.9705 46.0203 60.3649 46.1928 60.7096L46.4072 61.1379C46.4574 61.2381 46.4579 61.3401 46.4084 61.4406C44.7518 64.8054 44.5537 67.2754 44.7604 70.9274C44.8854 73.135 44.8611 75.1426 44.3349 77.7632C44.2574 78.1511 44.3354 78.5464 44.5549 78.8756C44.7746 79.2049 45.1092 79.4287 45.4971 79.5063C46.001 79.6072 46.4974 79.4381 46.8362 79.0992C47.0427 78.8933 47.1833 78.6305 47.2402 78.3444C47.7453 75.8278 47.8853 73.6317 47.7228 70.7643C47.4953 66.7413 47.8782 64.8869 49.5864 61.7459C49.7604 61.4262 49.7114 61.0415 49.4944 60.7731L50.2765 59.2215L51.0594 60.7731C50.842 61.0412 50.7935 61.4262 50.9674 61.7459C52.6757 64.887 53.0586 66.7413 52.831 70.7643C52.6685 73.6316 52.8083 75.8277 53.3132 78.3441C53.4738 79.1455 54.2554 79.6663 55.0565 79.5065C55.3467 79.4484 55.6069 79.3085 55.8116 79.1038C55.8806 79.0349 55.9433 78.9583 55.9988 78.8756C56.218 78.546 56.2962 78.1513 56.2187 77.7631C55.6929 75.1429 55.6682 73.1356 55.793 70.9279C55.9997 67.2759 55.8018 64.806 54.1454 61.4407C54.0957 61.3399 54.0964 61.2381 54.1466 61.1379L54.3608 60.7094C54.5358 60.3597 54.4665 59.9575 54.1838 59.6858C53.9009 59.4132 53.4968 59.3593 53.1534 59.5477C53.0357 59.6122 52.9183 59.6763 52.801 59.7408L52.7208 59.368C52.6764 59.161 52.6637 58.9819 52.6585 58.7771L52.6066 56.6986C52.6055 56.216 52.4573 55.7555 52.185 55.3687L52.5687 55.0275C52.5728 55.0241 52.5762 55.0207 52.5801 55.0168C52.629 54.9681 52.6571 54.9023 52.6585 54.8334L52.7107 52.59C52.7112 52.5579 52.7062 52.5259 52.6959 52.4955L51.2989 48.4788C51.2807 48.4261 51.2464 48.3804 51.201 48.3481C51.1556 48.3157 51.1013 48.2984 51.0455 48.2983ZM50.2767 50.9058L50.3804 51.0146L50.3906 53.5156L50.2765 53.7109L50.1738 53.5156L50.1736 51.0146L50.2767 50.9058Z" fill="white"/>
</g>
<path d="M15.625 76.3411V23.6328C23.0729 29.362 28.8021 33.3724 36.25 35.8341V76.3411H15.625Z" fill="#0AAAB6"/>
<path fill-rule="evenodd" clip-rule="evenodd" d="M17.6902 49.4571C18.0708 48.9138 18.6724 48.5322 19.4708 48.2926L19.8 49.3902C19.1661 49.5803 18.8188 49.8432 18.6287 50.1145C18.4399 50.384 18.3558 50.7338 18.3896 51.199C18.4602 52.1717 19.0247 53.4298 19.7846 54.8772C19.9776 55.2447 20.1823 55.623 20.3901 56.007C20.9725 57.0831 21.5788 58.2035 22.0173 59.2558C22.6027 60.6607 22.9844 62.1516 22.4537 63.39L21.4005 62.9386C21.7291 62.1718 21.5379 61.0846 20.9596 59.6965C20.5453 58.7023 19.9816 57.6606 19.4085 56.6014C19.1946 56.2061 18.9793 55.8084 18.7701 55.4098C18.026 53.9926 17.3373 52.5293 17.2468 51.282C17.2 50.6371 17.3083 50.0022 17.6902 49.4571Z" fill="white"/>
<path d="M19.0625 48.8414C19.0625 47.5757 20.0885 46.5497 21.3541 46.5497H31.6666C32.9323 46.5497 33.9583 47.5757 33.9583 48.8414C33.9583 50.107 32.9323 51.133 31.6666 51.133H21.3541C20.0885 51.133 19.0625 50.107 19.0625 48.8414Z" fill="white"/>
<rect x="20.2083" y="62.5914" width="4.58333" height="13.75" fill="white"/>
</g>
<defs>
<clipPath id="clip0_117_216">
<rect width="68.75" height="68.75" fill="white" transform="translate(15.625 15.625)"/>
</clipPath>
<clipPath id="clip1_117_216">
<rect width="16.0417" height="30.9375" fill="white" transform="translate(66.0416 45.4037)"/>
</clipPath>
<clipPath id="clip2_117_216">
<rect width="13.75" height="28.6458" fill="white" transform="translate(43.125 47.6953)"/>
</clipPath>
</defs>
</svg>
